:SAMPLES-PER-SECOND 30
:FRAME-RANGE 1-668
:FULLY-SPECIFIED
:DEGREES
376
root  45.6349 38.2595 -14.7382 -177.056 -4.75482 174.176
RightUpLeg  6.98343 -5.43877 -7.35642
RightLeg  37.2463 6.119 4.71846
RightFoot  -8.87191 -0.518479 21.0109
RightToes  -1.33073e-015 0 -3.6325e-017
Spine  4.77864 2.62313 -2.87602
Spine1  2.78423 4.34778 -9.30562
HEad  -0.933439 31.8355 -4.47731
LeftShoulder1  0.937054 1.25657 -35.5801
LeftArm  -21.6036 12.9246 -22.6985
LeftForeArm  -5.82603 5.17747 -14.187
LeftHand  0.402495 1.57437 -12.6733
RightShoulder  8.71618 10.6022 54.0109
RightArm  18.147 -3.09815 14.8448
RightForeArm  12.82 -0.433846 18.1514
RightHand  0.0331138 3.30926 0.201567
LeftUpLeg  -23.7448 5.24352 -13.168
LeftLeg  20.9606 8.67442 3.89265
LeftFoot  -1.27512 -0.510628 5.88016
LeftToes  -2.73175e-012 1.00346e-010 -4.28452e-011
377
root  45.5937 38.3392 -15.7975 -177.357 -4.12899 173.692
RightUpLeg  0.000633901 -3.60065 -8.28532
RightLeg  49.3543 4.95471 5.82633
RightFoot  3.26364 -2.53486 19.7756
RightToes  -1.33073e-015 0 -3.6325e-017
Spine  5.14966 2.16921 -5.17934
Spine1  2.73137 3.44384 -8.30864
HEad  -0.838111 34.2058 -5.25194
LeftShoulder1  1.0215 1.07165 -35.8773
LeftArm  -19.2943 9.929 -24.8007
LeftForeArm  1.17934 5.23416 -15.2062
LeftHand  0.518045 0.431856 -12.2653
RightShoulder  8.91064 11.1084 53.3304
RightArm  20.3271 -2.18251 15.5914
RightForeArm  12.2557 2.21045 17.7016
RightHand  0.0659043 3.38329 0.628504
LeftUpLeg  -22.1028 6.23543 -13.3285
LeftLeg  22.0422 8.29144 3.83862
LeftFoot  -3.70673 -0.314646 5.04793
LeftToes  -2.73175e-012 1.00346e-010 -4.28452e-011
378
root  45.5469 38.376 -16.8229 -178.208 -4.1716 173.37
RightUpLeg  -5.20819 -2.92966 -9.17567
RightLeg  57.9554 3.23043 5.11863
RightFoot  7.90192 -3.08436 18.3746
RightToes  -1.33073e-015 0 -3.6325e-017
Spine  5.80577 1.70271 -6.67558
Spine1  3.41029 2.63814 -8.11317
HEad  -1.00046 36.2123 -6.31803
LeftShoulder1  1.2219 0.618548 -36.2258
LeftArm  -16.0611 6.00109 -26.5801
LeftForeArm  8.40618 4.05142 -15.8456
LeftHand  0.495807 -0.583989 -9.616
RightShoulder  8.83016 11.0501 53.0707
RightArm  22.7232 -1.29222 15.8772
RightForeArm  10.3851 6.40536 16.4041
RightHand  0.0523026 3.66286 0.415014
LeftUpLeg  -19.8136 5.66174 -13.0817
LeftLeg  23.1295 8.97372 3.99118
LeftFoot  -5.99889 -0.169304 4.402
LeftToes  -2.73175e-012 1.00346e-010 -4.28452e-011
379
root  45.5086 38.5185 -17.8719 -178.63 -4.23925 173.732
RightUpLeg  -10.3906 -2.525 -9.27636
RightLeg  63.6027 1.07208 1.79579
RightFoot  2.99132 -2.28489 18.196
RightToes  -1.33073e-015 0 -3.6325e-017
Spine  5.93074 1.30277 -7.00358
Spine1  3.76009 2.0953 -8.04079
HEad  -1.29182 37.9468 -7.33543
LeftShoulder1  1.3125 0.398989 -36.155
LeftArm  -17.3703 2.02644 -28.589
LeftForeArm  13.7494 2.66672 -15.2838
LeftHand  0.367065 -1.34171 -6.22937
RightShoulder  8.8568 11.1865 52.7476
RightArm  26.3541 -0.712296 16.2332
RightForeArm  6.10867 10.7082 14.4791
RightHand  -0.027178 3.72521 -0.604319
LeftUpLeg  -17.4502 5.49244 -12.1043
LeftLeg  23.0865 9.28879 3.5358
LeftFoot  -7.76229 -0.0780601 3.99331
LeftToes  -2.73175e-012 1.00346e-010 -4.28452e-011
380
root  45.4823 38.6991 -18.9875 -179.04 -4.94234 174.391
RightUpLeg  -14.875 -2.67763 -8.88869
RightLeg  65.3663 -0.405694 -1.58638
RightFoot  2.05518 -1.71554 14.6545
RightToes  -1.33073e-015 0 -3.6325e-017
Spine  6.02867 0.806103 -7.13276
Spine1  3.60697 1.41455 -7.44143
HEad  -1.34277 39.3916 -7.72261
LeftShoulder1  1.33113 0.324564 -35.7632
LeftArm  -17.8977 -1.36883 -30.3895
LeftForeArm  15.1946 0.121767 -14.8595
LeftHand  0.225241 -1.40596 -3.73435
RightShoulder  8.91605 11.3736 52.4417
RightArm  28.9017 -0.155921 16.4112
RightForeArm  2.94741 13.6643 12.6201
RightHand  -0.0678869 3.8184 -1.11766
LeftUpLeg  -14.6832 5.4092 -10.7943
LeftLeg  22.4391 8.86216 2.67629
LeftFoot  -9.32293 -0.00452602 3.44053
LeftToes  -2.73175e-012 1.00346e-010 -4.28452e-011
381
root  45.4536 38.9058 -20.1539 -179.549 -5.67763 175.073
RightUpLeg  -18.2385 -2.78903 -8.46056
RightLeg  63.4126 -1.65212 -4.1584
RightFoot  0.980069 -1.26722 11.7638
RightToes  -1.33073e-015 0 -3.6325e-017
Spine  6.16661 0.506516 -7.01505
Spine1  3.17994 1.00499 -6.79379
HEad  -1.22551 40.3788 -7.02336
LeftShoulder1  1.36351 0.193961 -35.107
LeftArm  -15.9168 -4.67682 -31.7995
LeftForeArm  14.7002 -2.83533 -14.6712
LeftHand  0.143791 -1.30696 -2.38165
RightShoulder  8.98518 11.5689 52.1706
RightArm  31.2841 0.0890829 16.4802
RightForeArm  0.0898029 16.0577 10.8116
RightHand  -0.0935859 3.74534 -1.44816
LeftUpLeg  -11.3708 5.20732 -9.42233
LeftLeg  20.9997 8.64168 1.74073
LeftFoot  -10.5532 0.0414048 3.20662
LeftToes  -2.73175e-012 1.00346e-010 -4.28452e-011
382
root  45.4142 39.1014 -21.3248 -179.811 -6.78746 175.921
RightUpLeg  -20.578 -3.2448 -7.91936
RightLeg  57.7969 -2.92944 -5.45189
RightFoot  -0.831885 -1.03174 11.1234
RightToes  -1.33073e-015 0 -3.6325e-017
Spine  6.08833 0.120668 -6.48755
Spine1  2.70495 0.595046 -6.09572
HEad  -1.37673 40.9729 -6.20449
LeftShoulder1  1.41206 0.0220013 -34.4811
LeftArm  -11.0861 -7.59742 -32.8309
LeftForeArm  12.9906 -7.00067 -14.0192
LeftHand  0.126771 -1.66764 -1.94478
RightShoulder  9.07722 11.7945 51.933
RightArm  32.4759 0.439235 16.3695
RightForeArm  -1.61637 17.3666 9.72274
RightHand  -0.097195 3.83646 -1.48537
LeftUpLeg  -8.29543 5.1595 -7.99414
LeftLeg  19.4327 7.4702 0.797324
LeftFoot  -11.5666 0.0753078 2.94025
LeftToes  -2.73175e-012 1.00346e-010 -4.28452e-011
383
root  45.3777 39.2704 -22.4823 -179.94 -7.98542 176.881
RightUpLeg  -21.717 -3.87067 -7.25373
RightLeg  48.6691 -4.27258 -5.51806
RightFoot  -1.76992 -0.949517 11.1635
RightToes  -1.33073e-015 0 -3.6325e-017
Spine  5.90057 -0.165512 -5.50133
Spine1  2.31872 0.381226 -5.4667
HEad  -2.00714 41.2423 -5.79111
LeftShoulder1  1.4312 -0.0906974 -33.754
LeftArm  -1.89289 -10.0973 -33.8305
LeftForeArm  7.89991 -12.6698 -11.9814
LeftHand  0.140472 -2.36897 -1.91525
RightShoulder  9.13606 11.9391 51.7831
RightArm  31.5873 0.950174 16.1095
RightForeArm  -1.08135 17.4539 9.57599
RightHand  -0.109875 3.93082 -1.63447
LeftUpLeg  -5.36977 5.503 -6.45491
LeftLeg  17.608 6.07279 -0.0419311
LeftFoot  -12.4313 0.103078 2.98186
LeftToes  -2.73175e-012 1.00346e-010 -4.28452e-011
384
root  45.3391 39.4087 -23.6389 -179.944 -9.20293 177.572
RightUpLeg  -21.4773 -4.61135 -6.89314
RightLeg  36.2953 -5.4012 -4.49608
RightFoot  -1.1064 -1.02032 11.2745
RightToes  -1.33073e-015 0 -3.6325e-017
Spine  5.64549 -0.320577 -4.5425
Spine1  2.04528 0.306968 -4.86845
HEad  -2.88696 41.2887 -5.74282
LeftShoulder1  1.42947 -0.13858 -33.189
LeftArm  8.03655 -12.248 -34.6032
LeftForeArm  2.05381 -17.946 -8.56389
LeftHand  0.141086 -2.88445 -1.76384
RightShoulder  9.25933 12.1603 51.7403
RightArm  29.3565 1.46156 15.565
RightForeArm  0.884791 16.5438 10.2395
RightHand  -0.133058 3.95345 -1.91993
LeftUpLeg  -2.39722 5.55364 -5.18146
LeftLeg  15.36 4.75172 -0.686345
LeftFoot  -13.0162 0.117228 2.66969
LeftToes  -2.73175e-012 1.00346e-010 -4.28452e-011
385
root  45.3219 39.4714 -24.8229 -179.606 -10.4982 177.985
RightUpLeg  -20.1527 -5.20584 -6.80949
RightLeg  21.3396 -5.76438 -2.68558
RightFoot  0.751827 -1.1878 11.2286
RightToes  -1.33073e-015 0 -3.6325e-017
Spine  4.94408 -0.386909 -3.7106
Spine1  1.99741 0.341651 -4.43159
HEad  -4.12139 41.376 -6.19836
LeftShoulder1  1.43583 -0.217525 -32.5315
LeftArm  13.0992 -13.8496 -35.1628
LeftForeArm  -0.0935717 -21.5256 -5.78281
LeftHand  0.145499 -3.26692 -1.71646
RightShoulder  9.42214 12.4494 51.6954
RightArm  25.2006 1.95136 14.9655
RightForeArm  4.5066 14.3346 11.79
RightHand  -0.140914 4.02852 -2.00631
LeftUpLeg  0.0811765 5.73106 -4.10262
LeftLeg  13.4897 3.02196 -1.22528
LeftFoot  -13.7227 0.130172 2.29735
LeftToes  -2.73175e-012 1.00346e-010 -4.28452e-011
386
root  45.338 39.4183 -26.0511 -179.539 -12.1343 178.138
RightUpLeg  -17.9965 -5.40888 -7.0841
RightLeg  7.2703 -5.22411 -1.06029
RightFoot  1.50545 -1.30939 11.6848
RightToes  -1.33073e-015 0 -3.6325e-017
Spine  4.74987 -0.506561 -3.07966
Spine1  1.88121 0.264838 -4.15125
HEad  -5.55521 41.6162 -6.86414
LeftShoulder1  1.39928 -0.201641 -31.7104
LeftArm  12.2091 -14.7804 -35.5149
LeftForeArm  1.69982 -24.0183 -5.0466
LeftHand  0.166228 -3.48732 -1.92917
RightShoulder  9.59062 12.7309 51.7055
RightArm  21.1879 2.25776 14.3532
RightForeArm  7.69998 11.907 13.2549
RightHand  -0.119287 3.95778 -1.74838
LeftUpLeg  2.43601 6.20492 -3.04209
LeftLeg  12.7051 0.649275 -1.67842
LeftFoot  -15.0136 0.149158 1.84101
LeftToes  -2.73175e-012 1.00346e-010 -4.28452e-011
387
root  45.3826 39.3089 -27.3229 -179.875 -13.6854 178.507
RightUpLeg  -16.7653 -5.32623 -6.88501
RightLeg  -0.515365 -3.97325 -0.33718
RightFoot  0.896407 -1.09942 10.2868
RightToes  -1.33073e-015 0 -3.6325e-017
Spine  4.86632 -0.388854 -1.89109
Spine1  2.04664 0.400957 -3.9029
HEad  -7.19744 41.8231 -8.09282
LeftShoulder1  1.40764 -0.260489 -31.3412
LeftArm  10.0229 -15.3598 -35.3429
LeftForeArm  4.08423 -26.0023 -5.36622
LeftHand  0.154099 -3.4305 -1.78595
RightShoulder  9.68007 12.9322 51.5507
RightArm  18.112 2.15319 13.8737
RightForeArm  9.79716 9.98972 14.1982
RightHand  -0.0763883 3.84452 -1.22311
LeftUpLeg  4.81766 6.48834 -1.83921
LeftLeg  12.6577 -1.42534 -1.45425
LeftFoot  -16.7166 0.148259 1.02135
LeftToes  -2.73175e-012 1.00346e-010 -4.28452e-011
388
root  45.4841 39.1286 -28.6102 179.73 -14.7697 179.11
RightUpLeg  -17.432 -4.68279 -5.98068
RightLeg  0.056695 -1.5156 -0.527406
RightFoot  2.21188 -1.27506 10.828
RightToes  -1.33073e-015 0 -3.6325e-017
Spine  5.32598 -0.0502472 -0.0129153
Spine1  2.07972 0.829713 -4.04489
HEad  -8.21116 42.4896 -9.07688
LeftShoulder1  1.39013 -0.229052 -31.1858
LeftArm  8.54276 -15.2581 -34.7487
LeftForeArm  5.87981 -27.7023 -5.66259
LeftHand  0.123963 -3.35593 -1.40609
RightShoulder  9.76023 13.0692 51.5469
RightArm  16.5123 1.93654 13.4616
RightForeArm  10.9261 8.70647 14.7792
RightHand  -0.0323361 3.77501 -0.669758
LeftUpLeg  6.60377 6.22336 -0.584849
LeftLeg  13.7202 -2.56659 -0.677883
LeftFoot  -18.8773 0.0836736 -0.448877
LeftToes  -2.73175e-012 1.00346e-010 -4.28452e-011
389
root  45.614 38.8181 -29.9707 179.286 -16.0694 179.627
RightUpLeg  -18.46 -4.34907 -5.21213
RightLeg  5.32052 0.603546 -0.396463
RightFoot  8.72256 -2.0065 11.6473
RightToes  -1.33073e-015 0 -3.6325e-017
Spine  5.81891 0.0771971 1.78571
Spine1  2.01051 1.12794 -4.5026
HEad  -9.287 44.1984 -10.6734
LeftShoulder1  1.33615 -0.0664624 -31.3686
LeftArm  7.22886 -14.1149 -33.6229
LeftForeArm  7.49897 -29.3384 -5.9634
LeftHand  0.0986577 -3.24609 -1.09143
RightShoulder  9.9376 13.3811 51.5127
RightArm  16.0596 1.4692 13.261
RightForeArm  11.7542 7.93491 15.1199
RightHand  -0.0129542 3.83123 -0.425527
LeftUpLeg  7.00386 3.77093 0.405008
LeftLeg  17.7905 -1.72142 -0.133459
LeftFoot  -21.417 -0.136965 -3.01046
LeftToes  -2.73175e-012 1.00346e-010 -4.28452e-011
390
root  45.7072 38.5865 -31.2038 178.666 -18.1084 -179.216
RightUpLeg  -20.1613 -6.27376 -4.01735
RightLeg  13.4167 0.799688 0.379155
RightFoot  5.74908 -1.40931 9.62162
RightToes  -1.33073e-015 0 -3.6325e-017
Spine  6.72345 -0.119013 4.77242
Spine1  2.0828 1.20513 -4.64851
HEad  -11.0667 46.8279 -13.0913
LeftShoulder1  1.29153 0.0953635 -31.8355
LeftArm  6.93912 -12.5555 -32.5082
LeftForeArm  8.02993 -30.205 -6.1452
LeftHand  0.067526 -3.09665 -0.695243
RightShoulder  9.5022 12.7203 51.2712
RightArm  16.592 1.99158 13.6376
RightForeArm  12.6083 7.27377 15.4565
RightHand  0.00267929 4.00688 -0.236224
LeftUpLeg  5.18867 1.00893 2.30641
LeftLeg  25.3232 -1.21298 -0.287543
LeftFoot  -22.1096 -0.551698 -7.2523
LeftToes  -2.73175e-012 1.00346e-010 -4.28452e-011
